<svg xmlns="http://www.w3.org/2000/svg" xmlns:svg="http://www.w3.org/2000/svg" id="svg14" version="1.1" viewBox="-178.3 -167.1 1000 700"><metadata id="metadata20"/><path id="path10" d="m 76.426055,133.76997 c 4,0 7.3,1.4 10.1,4.2 2.8,2.8 4.2,6.2 4.2,10.1 v 49.6 h -50.7 c -4,0 -7.3,-1.4 -10.1,-4.2 -2.8,-2.8 -4.2,-6.2 -4.2,-10.1 v -23.6 h 53.1 v -11.7 c 0,-0.7 -0.2,-1.2 -0.7,-1.7 -0.5,-0.5 -1,-0.7 -1.7,-0.7 h -50.7 v -11.9 z m 2.4,52 v -14.1 h -41.2 v 11.7 c 0,0.7 0.2,1.2 0.7,1.7 0.5,0.5 1,0.7 1.7,0.7 z m 114.700005,-52 h 12.7 l -24,63.9 h -9.7 l -21.5,-47.5 -20.3,47.5 -0.2,-0.1 0.1,0.1 h -9.6 l -25.100005,-63.9 h 12.600005 l 17.3,42.4 18.4,-42.4 h 13.6 l 19.5,42.4 z m 67.2,0 c 4,0 7.3,1.4 10.1,4.2 2.8,2.8 4.2,6.2 4.2,10.1 v 23.6 h -53.1 v 11.7 c 0,0.7 0.2,1.2 0.7,1.7 0.5,0.5 1,0.7 1.7,0.7 h 50.7 v 11.9 h -50.7 c -4,0 -7.3,-1.4 -10.1,-4.2 -2.8,-2.8 -4.2,-6.2 -4.2,-10.1 v -35.3 c 0,-4 1.4,-7.3 4.2,-10.1 2.8,-2.8 6.2,-4.2 10.1,-4.2 z m -38.8,26 h 41.2 v -11.7 c 0,-0.7 -0.2,-1.2 -0.7,-1.7 -0.5,-0.5 -1,-0.7 -1.7,-0.7 h -36.4 c -0.7,0 -1.2,0.2 -1.7,0.7 -0.5,0.5 -0.7,1 -0.7,1.7 z m 129,-11.6 v 2.4 h -11.9 v -2.4 c 0,-0.7 -0.2,-1.2 -0.7,-1.7 -0.5,-0.5 -1,-0.7 -1.7,-0.7 h -36.4 c -0.7,0 -1.2,0.2 -1.7,0.7 -0.5,0.5 -0.7,1 -0.7,1.7 v 9.3 c 0,0.7 0.2,1.2 0.7,1.7 0.5,0.5 1,0.7 1.7,0.7 h 36.4 c 4,0 7.3,1.4 10.1,4.2 2.8,2.8 4.2,6.2 4.2,10.1 v 9.3 c 0,4 -1.4,7.3 -4.2,10.1 -2.8,2.8 -6.2,4.2 -10.1,4.2 h -36.4 c -4,0 -7.3,-1.4 -10.1,-4.2 -2.8,-2.8 -4.2,-6.2 -4.2,-10.1 v -2.4 h 11.9 v 2.4 c 0,0.7 0.2,1.2 0.7,1.7 0.5,0.5 1,0.7 1.7,0.7 h 36.4 c 0.7,0 1.2,-0.2 1.7,-0.7 0.5,-0.5 0.7,-1 0.7,-1.7 v -9.3 c 0,-0.7 -0.2,-1.2 -0.7,-1.7 -0.5,-0.5 -1,-0.7 -1.7,-0.7 h -36.4 c -4,0 -7.3,-1.4 -10.1,-4.2 -2.8,-2.8 -4.2,-6.2 -4.2,-10.1 v -9.3 c 0,-4 1.4,-7.3 4.2,-10.1 2.8,-2.8 6.2,-4.2 10.1,-4.2 h 36.4 c 4,0 7.3,1.4 10.1,4.2 2.8,2.7 4.2,6.1 4.2,10.1 z m 25.2,-14.4 h 36.4 c 4,0 7.3,1.4 10.1,4.2 2.8,2.8 4.2,6.2 4.2,10.1 v 35.3 c 0,4 -1.4,7.3 -4.2,10.1 -2.8,2.8 -6.2,4.2 -10.1,4.2 h -36.4 c -4,0 -7.3,-1.4 -10.1,-4.2 -2.8,-2.8 -4.2,-6.2 -4.2,-10.1 v -35.3 c 0,-4 1.4,-7.3 4.2,-10.1 2.8,-2.8 6.2,-4.2 10.1,-4.2 z m 36.4,11.9 h -36.4 c -0.7,0 -1.2,0.2 -1.7,0.7 -0.5,0.5 -0.7,1 -0.7,1.7 v 35.3 c 0,0.7 0.2,1.2 0.7,1.7 0.5,0.5 1,0.7 1.7,0.7 h 36.4 c 0.7,0 1.2,-0.2 1.7,-0.7 0.5,-0.5 0.7,-1 0.7,-1.7 v -35.3 c 0,-0.7 -0.2,-1.2 -0.7,-1.7 -0.5,-0.4 -1,-0.7 -1.7,-0.7 z m 107.5,-11.9 c 4,0 7.3,1.4 10.1,4.2 2.8,2.8 4.2,6.2 4.2,10.1 v 49.6 h -11.8 v -49.6 c 0,-0.7 -0.2,-1.2 -0.7,-1.7 -0.5,-0.5 -1.1,-0.7 -1.8,-0.7 h -25.2 c -0.7,0 -1.2,0.2 -1.7,0.7 -0.5,0.5 -0.7,1 -0.7,1.7 v 49.6 h -11.9 v -49.6 c 0,-0.7 -0.2,-1.2 -0.7,-1.7 -0.5,-0.5 -1,-0.7 -1.7,-0.7 h -25.3 c -0.7,0 -1.2,0.2 -1.7,0.7 -0.5,0.5 -0.7,1 -0.7,1.7 v 49.6 h -11.9 v -63.9 z m 76.5,0 c 4,0 7.3,1.4 10.1,4.2 2.8,2.8 4.2,6.2 4.2,10.1 v 23.6 h -53.1 v 11.7 c 0,0.7 0.2,1.2 0.7,1.7 0.5,0.5 1,0.7 1.7,0.7 h 50.7 v 11.9 h -50.7 c -4,0 -7.3,-1.4 -10.1,-4.2 -2.8,-2.8 -4.2,-6.2 -4.2,-10.1 v -35.3 c 0,-4 1.4,-7.3 4.2,-10.1 2.8,-2.8 6.2,-4.2 10.1,-4.2 z m -38.8,26 h 41.2 v -11.7 c 0,-0.7 -0.2,-1.2 -0.7,-1.7 -0.5,-0.5 -1,-0.7 -1.7,-0.7 h -36.4 c -0.7,0 -1.2,0.2 -1.7,0.7 -0.5,0.5 -0.7,1 -0.7,1.7 z" style="fill:#494368"/></svg>